<svg width="52" height="52" viewBox="0 0 52 52" fill="none" xmlns="http://www.w3.org/2000/svg">
<g clip-path="url(#clip0_1_8581)">
<path d="M18.6333 35.5333C16.7414 37.2773 14.2482 38.222 11.6756 38.1696C9.10296 38.1173 6.65028 37.072 4.83079 35.2525C3.0113 33.4331 1.96602 30.9804 1.91369 28.4078C1.86135 25.8351 2.80602 23.342 4.55 21.45L21.45 4.55C23.342 2.80602 25.8351 1.86135 28.4078 1.91369C30.9804 1.96602 33.4331 3.0113 35.2525 4.83079C37.072 6.65028 38.1173 9.10296 38.1696 11.6756C38.222 14.2482 37.2773 16.7414 35.5333 18.6333M12.9978 12.9978L22.2062 22.2062" stroke="#007AFF" stroke-width="2.25" stroke-linecap="round" stroke-linejoin="round"/>
<path d="M37.375 32.5V42.25M32.5 37.375H42.25M50.375 34.125C50.3819 37.909 49.0973 41.582 46.7334 44.5367C44.3696 47.4915 41.0682 49.5511 37.375 50.375C33.6818 49.5511 30.3804 47.4915 28.0166 44.5367C25.6527 41.582 24.3681 37.909 24.375 34.125V29.25C24.375 28.388 24.7174 27.5614 25.3269 26.9519C25.9364 26.3424 26.763 26 27.625 26H47.125C47.987 26 48.8136 26.3424 49.4231 26.9519C50.0326 27.5614 50.375 28.388 50.375 29.25V34.125Z" stroke="#007AFF" stroke-width="2.25" stroke-linecap="round" stroke-linejoin="round"/>
</g>
<defs>
<clipPath id="clip0_1_8581">
<rect width="52" height="52" fill="white"/>
</clipPath>
</defs>
</svg>
